<?xml version="1.0" encoding="UTF-8" standalone="no"?>
<svg width="731px" height="731px" viewBox="0 0 731 731" version="1.1" xmlns="http://www.w3.org/2000/svg" xmlns:xlink="http://www.w3.org/1999/xlink">
    <!-- Generator: Sketch 3.7.2 (28276) - http://www.bohemiancoding.com/sketch -->
    <title>Group</title>
    <desc>Created with Sketch.</desc>
    <defs>
        <rect id="path-1" x="22" y="22" width="685" height="685"></rect>
        <mask id="mask-2" maskContentUnits="userSpaceOnUse" maskUnits="objectBoundingBox" x="0" y="0" width="685" height="685" fill="white">
            <use xlink:href="#path-1"></use>
        </mask>
    </defs>
    <g id="Page-1" stroke="none" stroke-width="1" fill="none" fill-rule="evenodd">
        <g id="Artboard-8" transform="translate(-339.000000, -349.000000)" stroke="#000000">
            <g id="Group" transform="translate(340.000000, 350.000000)">
                <use id="Rectangle-34" mask="url(#mask-2)" stroke-width="6" xlink:href="#path-1"></use>
                <g id="Corner-Copy-14" transform="translate(12.500000, 13.000000) rotate(-270.000000) translate(-12.500000, -13.000000) translate(0.500000, 0.500000)" stroke-width="3" stroke-linecap="square">
                    <path d="M22.5878789,3.22020498 L22.5878789,24.1515374" id="Line"></path>
                    <path d="M22.5878789,1.61010249 L9.41469125e-14,1.61010249" id="Line"></path>
                </g>
                <g id="Corner-Copy-16" transform="translate(1.000000, 704.000000)" stroke-width="3" stroke-linecap="square">
                    <path d="M22.5878789,3.22020498 L22.5878789,24.1515374" id="Line"></path>
                    <path d="M22.5878789,1.61010249 L9.14823772e-14,1.61010249" id="Line"></path>
                </g>
                <g id="Corner-Copy-17" transform="translate(716.500000, 715.500000) rotate(-90.000000) translate(-716.500000, -715.500000) translate(704.000000, 703.000000)" stroke-width="3" stroke-linecap="square">
                    <path d="M22.5878789,3.22020498 L22.5878789,24.1515374" id="Line"></path>
                    <path d="M22.5878789,1.61010249 L9.14823772e-14,1.61010249" id="Line"></path>
                </g>
                <g id="Corner-Copy-15" transform="translate(715.500000, 12.500000) rotate(-180.000000) translate(-715.500000, -12.500000) translate(703.000000, 0.000000)" stroke-width="3" stroke-linecap="square">
                    <path d="M22.5878789,3.22020498 L22.5878789,24.1515374" id="Line"></path>
                    <path d="M22.5878789,1.61010249 L9.41469125e-14,1.61010249" id="Line"></path>
                </g>
            </g>
        </g>
    </g>
</svg>