<?xml version="1.0" encoding="UTF-8" standalone="no"?>
<svg width="329px" height="120px" viewBox="0 0 657 239" version="1.1" xmlns="http://www.w3.org/2000/svg" xmlns:xlink="http://www.w3.org/1999/xlink">
    <!-- Generator: Sketch 3.7.2 (28276) - http://www.bohemiancoding.com/sketch -->
    <title>Logo</title>
    <desc>Created with Sketch.</desc>
    <defs>
        <rect id="path-1" x="10.2686115" y="10.28126" width="634.462777" height="216.43748"></rect>
        <mask id="mask-2" maskContentUnits="userSpaceOnUse" maskUnits="objectBoundingBox" x="0" y="0" width="634.462777" height="216.43748" fill="white">
            <use xlink:href="#path-1"></use>
        </mask>
    </defs>
    <g id="Page-1" stroke="none" stroke-width="1" fill="none" fill-rule="evenodd">
        <g id="Home-Copy-2" transform="translate(-632.000000, -178.000000)">
            <g id="Logo" transform="translate(633.000000, 179.000000)">
                <use id="Rectangle-19" stroke="#000000" mask="url(#mask-2)" stroke-width="6" fill="#CE8544" xlink:href="#path-1"></use>
                <text id="Construction,-Inc." font-family="Helvetica-Bold, Helvetica" font-size="68.0496354" font-weight="bold" fill="#000000">
                    <tspan x="32.28467" y="198.528355">Construction, Inc.</tspan>
                </text>
                <path d="M46.2217893,46.1101085 L46.2217893,110.407493 L59.7064726,110.407493 C66.6071197,110.407493 71.4185079,105.617542 74.1407815,96.0374958 C75.6285357,90.7796099 76.3724016,84.5192549 76.3724016,77.256243 C76.3724016,67.2306131 75.2566027,59.5332727 73.0249714,54.1639909 C70.7933402,48.7947091 66.353885,46.1101085 59.7064726,46.1101085 L46.2217893,46.1101085 Z M73.0012308,31.1385761 C77.9076542,33.4110522 81.8802148,37.5771959 84.9190319,43.6371322 C87.3564164,48.5385512 89.0182445,53.840916 89.9045662,59.5443854 C90.7908878,65.2478549 91.234042,70.6838927 91.234042,75.8526619 C91.234042,88.9528183 89.3664637,100.047682 85.6312511,109.137587 C80.566556,121.391134 72.7480502,127.517816 62.1754992,127.517816 L32.0248869,127.517816 L32.0248869,28.9997857 L62.1754992,28.9997857 C66.5121443,29.0889024 70.1206855,29.8018254 73.0012308,31.1385761 L73.0012308,31.1385761 Z M115.639419,127.517816 L101.110148,127.517816 L101.110148,28.9997857 L115.639419,28.9997857 L115.639419,127.517816 Z M143.463449,46.1101085 L143.463449,110.407493 L156.948132,110.407493 C163.848779,110.407493 168.660168,105.617542 171.382441,96.0374958 C172.870195,90.7796099 173.614061,84.5192549 173.614061,77.256243 C173.614061,67.2306131 172.498262,59.5332727 170.266631,54.1639909 C168.035,48.7947091 163.595545,46.1101085 156.948132,46.1101085 L143.463449,46.1101085 Z M170.242891,31.1385761 C175.149314,33.4110522 179.121875,37.5771959 182.160692,43.6371322 C184.598076,48.5385512 186.259904,53.840916 187.146226,59.5443854 C188.032548,65.2478549 188.475702,70.6838927 188.475702,75.8526619 C188.475702,88.9528183 186.608123,100.047682 182.872911,109.137587 C177.808216,121.391134 169.98971,127.517816 159.417159,127.517816 L129.266547,127.517816 L129.266547,28.9997857 L159.417159,28.9997857 C163.753804,29.0889024 167.362345,29.8018254 170.242891,31.1385761 L170.242891,31.1385761 Z M214.115592,46.1101085 L214.115592,72.5776391 L230.686559,72.5776391 C233.978611,72.5776391 236.447613,72.0429469 238.093638,70.9735464 C241.005838,69.1020955 242.461916,65.4038075 242.461916,59.8785714 C242.461916,53.9077518 241.053319,49.89756 238.236082,47.8478757 C236.653365,46.6893584 234.279325,46.1101085 231.11389,46.1101085 L214.115592,46.1101085 Z M245.476977,31.5395992 C248.120115,33.0991417 250.359626,35.3938625 252.195578,38.4238307 C253.714987,40.9190986 254.917834,43.6816752 255.804156,46.7116433 C256.690477,49.7416115 257.133631,53.1948322 257.133631,57.0714091 C257.133631,61.7500364 256.294804,66.3506175 254.617124,70.8732906 C252.939443,75.3959636 250.16973,78.5929776 246.3079,80.4644286 C249.536643,82.2913211 251.823635,84.8868064 253.168945,88.2509622 C254.514254,91.615118 255.186899,96.7503914 255.186899,103.656936 L255.186899,110.273819 C255.186899,114.774213 255.313514,117.826415 255.566749,119.430515 C255.946601,121.970342 256.83291,123.841764 258.225701,125.04484 L258.225701,127.517816 L242.129547,127.517816 C241.686386,125.334457 241.369848,123.574428 241.179922,122.237678 C240.800069,119.47506 240.594319,116.645647 240.562665,113.749353 L240.467702,104.592657 C240.404394,98.3099292 239.589307,94.1215066 238.022417,92.0272639 C236.455527,89.9330212 233.51963,88.8859156 229.214639,88.8859156 L214.115592,88.8859156 L214.115592,127.517816 L199.823727,127.517816 L199.823727,28.9997857 L234.152692,28.9997857 C239.059116,29.1334608 242.83384,29.9800568 245.476977,31.5395992 L245.476977,31.5395992 Z M283.105891,127.517816 L268.57662,127.517816 L268.57662,28.9997857 L283.105891,28.9997857 L283.105891,127.517816 Z M303.522841,39.2927143 C309.220623,31.1830936 316.469359,27.1283441 325.269267,27.1283441 C337.044683,27.1283441 345.654536,32.5643819 351.099083,43.4366206 C354.106246,49.5411152 355.720593,55.6677972 355.942173,61.8168502 L341.317939,61.8168502 C340.368309,57.0936645 339.149635,53.5290496 337.661881,51.1228984 C335.002916,46.8452963 331.062009,44.7065274 325.839042,44.7065274 C320.521113,44.7065274 316.326975,47.7253106 313.256503,53.7629678 C310.186032,59.8006249 308.650819,68.3445613 308.650819,79.3950334 C308.650819,90.4455055 310.27308,98.7220958 313.51765,104.225053 C316.762221,109.728009 320.885137,112.479447 325.886524,112.479447 C331.014527,112.479447 334.92378,110.117889 337.6144,105.394704 C339.102154,102.854877 340.336655,99.0451951 341.317939,93.9655427 L355.79973,93.9655427 C354.533556,104.704106 351.296948,113.437413 346.089808,120.165724 C340.882668,126.894036 334.211615,130.258141 326.076449,130.258141 C316.010367,130.258141 308.0969,125.713257 302.335809,116.623353 C296.574719,107.48889 293.694216,94.9681802 293.694216,79.0608474 C293.694216,61.8613223 296.970392,48.6054105 303.522841,39.2927143 L303.522841,39.2927143 Z M367.195237,28.9997857 L381.582064,28.9997857 L381.582064,69.5699652 L408.598912,28.9997857 L427.496461,28.9997857 L398.817768,69.5699652 L428.968381,127.517816 L410.165794,127.517816 L388.561812,84.4746605 L381.582064,94.5670774 L381.582064,127.517816 L367.195237,127.517816 L367.195237,28.9997857 Z M447.770967,97.106891 C448.214128,101.607285 449.08461,104.97139 450.382438,107.199308 C452.756513,111.254118 456.824036,113.281493 462.585126,113.281493 C466.03545,113.281493 468.836817,112.746801 470.989313,111.6774 C475.072723,109.627716 477.114398,105.818034 477.114398,100.248239 C477.114398,96.9954794 476.101474,94.4779701 474.075596,92.6956359 C472.049718,90.95786 468.868504,89.4206198 464.531859,88.0838692 L457.124779,85.7445672 C449.84428,83.4275328 444.811315,80.9100235 442.025733,78.1919638 C437.309235,73.6470116 434.951022,66.5400605 434.951022,56.8708975 C434.951022,48.0483432 437.230101,40.7186037 441.788326,34.8814592 C446.346552,29.0443146 453.041345,26.1257862 461.872907,26.1257862 C469.248369,26.1257862 475.539576,28.8772233 480.746716,34.3801802 C485.953855,39.883137 488.684002,47.8701024 488.937236,58.3413158 L474.882778,58.3413158 C474.629543,52.4150546 472.793619,48.2043532 469.374949,45.7090853 C467.095837,44.0604262 464.262815,43.236109 460.8758,43.236109 C457.108933,43.236109 454.101816,44.3054935 451.854357,46.4442945 C449.606899,48.5830956 448.483186,51.5684606 448.483186,55.4004791 C448.483186,58.9205892 449.591072,61.5494927 451.806876,63.2872685 C453.231322,64.4457858 456.270093,65.8047952 460.923282,67.3643376 L472.983527,71.4414068 C478.269802,73.223741 482.25819,75.6075772 484.948809,78.592987 C489.127182,83.2270559 491.216338,89.9329878 491.216338,98.7109838 C491.216338,107.711771 488.771076,115.186323 483.88048,121.134864 C478.989884,127.083404 472.081427,130.05763 463.154902,130.05763 C454.038451,130.05763 446.868849,127.127962 441.645882,121.268538 C436.422915,115.409115 433.811471,107.355313 433.811471,97.106891 L447.770967,97.106891 Z M553.796664,46.4442945 L516.761266,46.4442945 L516.761266,67.3643376 L550.757862,67.3643376 L550.757862,84.4746605 L516.761266,84.4746605 L516.761266,109.805959 L555.50599,109.805959 L555.50599,127.517816 L502.469401,127.517816 L502.469401,28.9997857 L553.796664,28.9997857 L553.796664,46.4442945 Z M566.66409,28.9997857 L582.000543,28.9997857 L609.872054,97.775263 L609.872054,28.9997857 L623.499181,28.9997857 L623.499181,127.517816 L608.874948,127.517816 L580.291217,57.5392695 L580.291217,127.517816 L566.66409,127.517816 L566.66409,28.9997857 Z" id="DIDRICKSEN" stroke="#FFFFFF" stroke-width="3" fill="#000000"></path>
                <g id="Corner" transform="translate(1.738688, 224.915094)" stroke="#000000" stroke-width="3" stroke-linecap="square">
                    <path d="M9.60294118,1.47798742 L9.60294118,11.0849057" id="Line"></path>
                    <path d="M9.60294118,0.738993711 L0,0.738993711" id="Line"></path>
                </g>
                <g id="Corner-Copy" transform="translate(6.082611, 7.241135) rotate(-270.000000) translate(-6.082611, -7.241135) translate(0.582611, 1.241135)" stroke="#000000" stroke-width="3" stroke-linecap="square">
                    <path d="M9.60294118,1.47798742 L9.60294118,11.0849057" id="Line"></path>
                    <path d="M9.60294118,0.738993711 L-4.10782519e-14,0.738993711" id="Line"></path>
                </g>
                <g id="Corner-Copy-2" transform="translate(647.761312, 6.084906) rotate(-180.000000) translate(-647.761312, -6.084906) translate(642.261312, 0.084906)" stroke="#000000" stroke-width="3" stroke-linecap="square">
                    <path d="M9.60294118,1.47798742 L9.60294118,11.0849057" id="Line"></path>
                    <path d="M9.60294118,0.738993711 L0,0.738993711" id="Line"></path>
                </g>
                <g id="Corner-Copy-3" transform="translate(648.917389, 229.758865) rotate(-90.000000) translate(-648.917389, -229.758865) translate(643.417389, 223.758865)" stroke="#000000" stroke-width="3" stroke-linecap="square">
                    <path d="M9.60294118,1.47798742 L9.60294118,11.0849057" id="Line"></path>
                    <path d="M9.60294118,0.738993711 L2.27373675e-13,0.738993711" id="Line"></path>
                </g>
                <g id="Ruler-Lines" transform="translate(106.632353, 34.254717)" stroke="#FFFFFF" stroke-width="3" stroke-linecap="square">
                    <path d="M8.00583946,0.738993711 L0,0.738993711" id="Line"></path>
                    <path d="M7.69635864,7.5277156 L3.69343891,7.5277156" id="Line-Copy-4"></path>
                    <path d="M7.69635864,36.7179672 L3.69343891,36.7179672" id="Line-Copy-7"></path>
                    <path d="M7.69635864,66.2777156 L3.69343891,66.2777156" id="Line-Copy-10"></path>
                    <path d="M8.00583946,14.5481558 L4.00291973,14.5481558" id="Line-Copy-5"></path>
                    <path d="M8.00583946,44.1079043 L4.00291973,44.1079043" id="Line-Copy-8"></path>
                    <path d="M7.69635864,73.6676527 L3.69343891,73.6676527" id="Line-Copy-11"></path>
                    <path d="M7.69635864,21.938093 L3.69343891,21.938093" id="Line-Copy-6"></path>
                    <path d="M7.69635864,51.4978414 L3.69343891,51.4978414" id="Line-Copy-9"></path>
                    <path d="M7.69635864,80.688093 L3.69343891,80.688093" id="Line-Copy-12"></path>
                    <path d="M8.00583946,29.3280301 L0,29.3280301" id="Line-Copy"></path>
                    <path d="M8.00583946,58.8877785 L0,58.8877785" id="Line-Copy-2"></path>
                    <path d="M8.00583946,87.5707547 L0,87.5707547" id="Line-Copy-3"></path>
                </g>
                <g id="Ruler-Lines-Copy" transform="translate(273.575792, 34.254717)" stroke="#FFFFFF" stroke-width="3" stroke-linecap="square">
                    <path d="M8.00583946,0.738993711 L0,0.738993711" id="Line"></path>
                    <path d="M7.69635864,7.5277156 L3.69343891,7.5277156" id="Line-Copy-4"></path>
                    <path d="M7.69635864,36.7179672 L3.69343891,36.7179672" id="Line-Copy-7"></path>
                    <path d="M7.69635864,66.2777156 L3.69343891,66.2777156" id="Line-Copy-10"></path>
                    <path d="M8.00583946,14.5481558 L4.00291973,14.5481558" id="Line-Copy-5"></path>
                    <path d="M8.00583946,44.1079043 L4.00291973,44.1079043" id="Line-Copy-8"></path>
                    <path d="M7.69635864,73.6676527 L3.69343891,73.6676527" id="Line-Copy-11"></path>
                    <path d="M7.69635864,21.938093 L3.69343891,21.938093" id="Line-Copy-6"></path>
                    <path d="M7.69635864,51.4978414 L3.69343891,51.4978414" id="Line-Copy-9"></path>
                    <path d="M7.69635864,80.688093 L3.69343891,80.688093" id="Line-Copy-12"></path>
                    <path d="M8.00583946,29.3280301 L0,29.3280301" id="Line-Copy"></path>
                    <path d="M8.00583946,58.8877785 L0,58.8877785" id="Line-Copy-2"></path>
                    <path d="M8.00583946,87.5707547 L0,87.5707547" id="Line-Copy-3"></path>
                </g>
            </g>
        </g>
    </g>
</svg>